<?xml version="1.0" encoding="utf-8" standalone="no"?>
<!DOCTYPE svg PUBLIC "-//W3C//DTD SVG 1.1//EN"
  "http://www.w3.org/Graphics/SVG/1.1/DTD/svg11.dtd">
<!-- Created with matplotlib (https://matplotlib.org/) -->
<svg height="279.093821pt" version="1.1" viewBox="0 0 712.470313 279.093821" width="712.470313pt" xmlns="http://www.w3.org/2000/svg" xmlns:xlink="http://www.w3.org/1999/xlink">
 <defs>
  <style type="text/css">
*{stroke-linecap:butt;stroke-linejoin:round;}
  </style>
 </defs>
 <g id="figure_1">
  <g id="patch_1">
   <path d="M 0 279.093821 
L 712.470313 279.093821 
L 712.470313 0 
L 0 0 
z
" style="fill:#ffffff;"/>
  </g>
  <g id="axes_1">
   <g id="patch_2">
    <path d="M 42.620313 207.031 
L 705.270313 207.031 
L 705.270313 22.318125 
L 42.620313 22.318125 
z
" style="fill:#ffffff;"/>
   </g>
   <g id="PolyCollection_1">
    <defs>
     <path d="M 109.947545 -100.418123 
L 107.82308 -100.418123 
L 107.560712 -101.912684 
L 107.254396 -103.407245 
L 106.902541 -104.901806 
L 106.505059 -106.396367 
L 106.063671 -107.890928 
L 105.582136 -109.385489 
L 105.066387 -110.88005 
L 104.524531 -112.374611 
L 103.966696 -113.869172 
L 103.404713 -115.363733 
L 102.851646 -116.858294 
L 102.321176 -118.352855 
L 101.826896 -119.847416 
L 101.381546 -121.341977 
L 100.996269 -122.836538 
L 100.679942 -124.331098 
L 100.438636 -125.825659 
L 100.275274 -127.32022 
L 100.189498 -128.814781 
L 100.177776 -130.309342 
L 100.233729 -131.803903 
L 100.348641 -133.298464 
L 100.512114 -134.793025 
L 100.712787 -136.287586 
L 100.939062 -137.782147 
L 101.179769 -139.276708 
L 101.424702 -140.771269 
L 101.665015 -142.26583 
L 101.893428 -143.760391 
L 102.104277 -145.254952 
L 102.293414 -146.749513 
L 102.457999 -148.244073 
L 102.596235 -149.738634 
L 102.707089 -151.233195 
L 102.79004 -152.727756 
L 102.844885 -154.222317 
L 102.87162 -155.716878 
L 102.87038 -157.211439 
L 102.841443 -158.706 
L 102.785255 -160.200561 
L 102.702456 -161.695122 
L 102.593873 -163.189683 
L 102.460462 -164.684244 
L 102.303196 -166.178805 
L 102.122892 -167.673366 
L 101.920012 -169.167927 
L 101.694449 -170.662488 
L 101.445349 -172.157048 
L 101.17099 -173.651609 
L 100.868737 -175.14617 
L 100.535103 -176.640731 
L 100.165879 -178.135292 
L 99.756338 -179.629853 
L 99.301455 -181.124414 
L 98.796105 -182.618975 
L 98.235197 -184.113536 
L 97.613699 -185.608097 
L 96.926561 -187.102658 
L 96.168526 -188.597219 
L 95.333887 -190.09178 
L 94.416251 -191.586341 
L 93.408408 -193.080902 
L 92.302391 -194.575463 
L 91.08983 -196.070023 
L 89.762647 -197.564584 
L 88.314128 -199.059145 
L 86.740332 -200.553706 
L 85.041745 -202.048267 
L 83.225031 -203.542828 
L 81.304682 -205.037389 
L 79.304344 -206.53195 
L 77.257606 -208.026511 
L 75.208036 -209.521072 
L 73.208359 -211.015633 
L 71.318699 -212.510194 
L 69.603945 -214.004755 
L 68.130376 -215.499316 
L 66.961803 -216.993877 
L 66.155509 -218.488438 
L 65.75837 -219.982998 
L 65.803476 -221.477559 
L 66.30759 -222.97212 
L 67.269672 -224.466681 
L 68.670614 -225.961242 
L 70.474202 -227.455803 
L 72.629226 -228.950364 
L 75.072534 -230.444925 
L 77.732752 -231.939486 
L 80.53436 -233.434047 
L 83.401764 -234.928608 
L 86.263084 -236.423169 
L 89.053365 -237.91773 
L 91.717055 -239.412291 
L 94.209618 -240.906852 
L 96.49829 -242.401413 
L 98.562024 -243.895973 
L 100.390738 -245.390534 
L 101.984045 -246.885095 
L 103.349608 -248.379656 
L 114.421017 -248.379656 
L 114.421017 -248.379656 
L 115.78658 -246.885095 
L 117.379887 -245.390534 
L 119.208601 -243.895973 
L 121.272335 -242.401413 
L 123.561007 -240.906852 
L 126.05357 -239.412291 
L 128.71726 -237.91773 
L 131.507541 -236.423169 
L 134.368861 -234.928608 
L 137.236265 -233.434047 
L 140.037873 -231.939486 
L 142.698091 -230.444925 
L 145.141399 -228.950364 
L 147.296423 -227.455803 
L 149.100011 -225.961242 
L 150.500953 -224.466681 
L 151.463035 -222.97212 
L 151.967149 -221.477559 
L 152.012255 -219.982998 
L 151.615116 -218.488438 
L 150.808822 -216.993877 
L 149.640249 -215.499316 
L 148.16668 -214.004755 
L 146.451926 -212.510194 
L 144.562266 -211.015633 
L 142.562589 -209.521072 
L 140.513019 -208.026511 
L 138.466281 -206.53195 
L 136.465943 -205.037389 
L 134.545594 -203.542828 
L 132.72888 -202.048267 
L 131.030293 -200.553706 
L 129.456497 -199.059145 
L 128.007978 -197.564584 
L 126.680795 -196.070023 
L 125.468234 -194.575463 
L 124.362217 -193.080902 
L 123.354374 -191.586341 
L 122.436738 -190.09178 
L 121.602099 -188.597219 
L 120.844064 -187.102658 
L 120.156926 -185.608097 
L 119.535428 -184.113536 
L 118.97452 -182.618975 
L 118.46917 -181.124414 
L 118.014287 -179.629853 
L 117.604746 -178.135292 
L 117.235522 -176.640731 
L 116.901888 -175.14617 
L 116.599635 -173.651609 
L 116.325276 -172.157048 
L 116.076176 -170.662488 
L 115.850613 -169.167927 
L 115.647733 -167.673366 
L 115.467429 -166.178805 
L 115.310163 -164.684244 
L 115.176752 -163.189683 
L 115.068169 -161.695122 
L 114.98537 -160.200561 
L 114.929182 -158.706 
L 114.900245 -157.211439 
L 114.899005 -155.716878 
L 114.92574 -154.222317 
L 114.980585 -152.727756 
L 115.063536 -151.233195 
L 115.17439 -149.738634 
L 115.312626 -148.244073 
L 115.477211 -146.749513 
L 115.666348 -145.254952 
L 115.877197 -143.760391 
L 116.10561 -142.26583 
L 116.345923 -140.771269 
L 116.590856 -139.276708 
L 116.831563 -137.782147 
L 117.057838 -136.287586 
L 117.258511 -134.793025 
L 117.421984 -133.298464 
L 117.536896 -131.803903 
L 117.592849 -130.309342 
L 117.581127 -128.814781 
L 117.495351 -127.32022 
L 117.331989 -125.825659 
L 117.090683 -124.331098 
L 116.774356 -122.836538 
L 116.389079 -121.341977 
L 115.943729 -119.847416 
L 115.449449 -118.352855 
L 114.918979 -116.858294 
L 114.365912 -115.363733 
L 113.803929 -113.869172 
L 113.246094 -112.374611 
L 112.704238 -110.88005 
L 112.188489 -109.385489 
L 111.706954 -107.890928 
L 111.265566 -106.396367 
L 110.868084 -104.901806 
L 110.516229 -103.407245 
L 110.209913 -101.912684 
L 109.947545 -100.418123 
z
" id="md5ba358cb5" style="stroke:#3d3d3d;stroke-width:1.5;"/>
    </defs>
    <g clip-path="url(#pecfeae6b86)">
     <use style="fill:#3274a1;stroke:#3d3d3d;stroke-width:1.5;" x="0" xlink:href="#md5ba358cb5" y="279.093821"/>
    </g>
   </g>
   <g id="PolyCollection_2">
    <defs>
     <path d="M 242.325672 -102.248786 
L 240.504953 -102.248786 
L 240.268645 -103.706364 
L 239.991078 -105.163942 
L 239.670877 -106.62152 
L 239.308277 -108.079097 
L 238.905458 -109.536675 
L 238.466778 -110.994253 
L 237.998893 -112.451831 
L 237.510712 -113.909409 
L 237.013173 -115.366987 
L 236.518826 -116.824565 
L 236.041241 -118.282142 
L 235.594269 -119.73972 
L 235.191213 -121.197298 
L 234.843973 -122.654876 
L 234.562246 -124.112454 
L 234.352855 -125.570032 
L 234.219281 -127.02761 
L 234.161445 -128.485187 
L 234.175765 -129.942765 
L 234.255488 -131.400343 
L 234.391259 -132.857921 
L 234.571877 -134.315499 
L 234.785149 -135.773077 
L 235.018752 -137.230655 
L 235.26103 -138.688232 
L 235.501641 -140.14581 
L 235.731996 -141.603388 
L 235.945478 -143.060966 
L 236.137435 -144.518544 
L 236.304974 -145.976122 
L 236.446625 -147.4337 
L 236.561924 -148.891277 
L 236.650993 -150.348855 
L 236.714186 -151.806433 
L 236.751828 -153.264011 
L 236.764098 -154.721589 
L 236.751035 -156.179167 
L 236.712653 -157.636745 
L 236.649131 -159.094322 
L 236.561002 -160.5519 
L 236.449314 -162.009478 
L 236.315692 -163.467056 
L 236.162282 -164.924634 
L 235.991568 -166.382212 
L 235.806058 -167.83979 
L 235.607905 -169.297367 
L 235.398493 -170.754945 
L 235.178053 -172.212523 
L 234.945388 -173.670101 
L 234.697731 -175.127679 
L 234.430778 -176.585257 
L 234.138891 -178.042835 
L 233.815429 -179.500412 
L 233.453156 -180.95799 
L 233.044643 -182.415568 
L 232.582574 -183.873146 
L 232.059883 -185.330724 
L 231.469668 -186.788302 
L 230.804871 -188.245879 
L 230.057758 -189.703457 
L 229.219291 -191.161035 
L 228.278533 -192.618613 
L 227.222233 -194.076191 
L 226.034797 -195.533769 
L 224.698776 -196.991347 
L 223.196001 -198.448924 
L 221.509391 -199.906502 
L 219.625379 -201.36408 
L 217.536788 -202.821658 
L 215.245891 -204.279236 
L 212.767325 -205.736814 
L 210.130453 -207.194392 
L 207.380804 -208.651969 
L 204.580264 -210.109547 
L 201.805775 -211.567125 
L 199.146488 -213.024703 
L 196.699443 -214.482281 
L 194.564061 -215.939859 
L 192.835865 -217.397437 
L 191.599978 -218.855014 
L 190.925001 -220.312592 
L 190.857847 -221.77017 
L 191.420053 -223.227748 
L 192.605925 -224.685326 
L 194.38269 -226.142904 
L 196.692641 -227.600482 
L 199.45703 -229.058059 
L 202.581337 -230.515637 
L 205.961387 -231.973215 
L 209.489755 -233.430793 
L 213.061919 -234.888371 
L 216.581658 -236.345949 
L 219.965343 -237.803527 
L 223.144902 -239.261104 
L 226.069363 -240.718682 
L 228.705077 -242.17626 
L 231.034761 -243.633838 
L 233.05566 -245.091416 
L 234.777083 -246.548994 
L 248.053542 -246.548994 
L 248.053542 -246.548994 
L 249.774965 -245.091416 
L 251.795864 -243.633838 
L 254.125548 -242.17626 
L 256.761262 -240.718682 
L 259.685723 -239.261104 
L 262.865282 -237.803527 
L 266.248967 -236.345949 
L 269.768706 -234.888371 
L 273.34087 -233.430793 
L 276.869238 -231.973215 
L 280.249288 -230.515637 
L 283.373595 -229.058059 
L 286.137984 -227.600482 
L 288.447935 -226.142904 
L 290.2247 -224.685326 
L 291.410572 -223.227748 
L 291.972778 -221.77017 
L 291.905624 -220.312592 
L 291.230647 -218.855014 
L 289.99476 -217.397437 
L 288.266564 -215.939859 
L 286.131182 -214.482281 
L 283.684137 -213.024703 
L 281.02485 -211.567125 
L 278.250361 -210.109547 
L 275.449821 -208.651969 
L 272.700172 -207.194392 
L 270.0633 -205.736814 
L 267.584734 -204.279236 
L 265.293837 -202.821658 
L 263.205246 -201.36408 
L 261.321234 -199.906502 
L 259.634624 -198.448924 
L 258.131849 -196.991347 
L 256.795828 -195.533769 
L 255.608392 -194.076191 
L 254.552092 -192.618613 
L 253.611334 -191.161035 
L 252.772867 -189.703457 
L 252.025754 -188.245879 
L 251.360957 -186.788302 
L 250.770742 -185.330724 
L 250.248051 -183.873146 
L 249.785982 -182.415568 
L 249.377469 -180.95799 
L 249.015196 -179.500412 
L 248.691734 -178.042835 
L 248.399847 -176.585257 
L 248.132894 -175.127679 
L 247.885237 -173.670101 
L 247.652572 -172.212523 
L 247.432132 -170.754945 
L 247.22272 -169.297367 
L 247.024567 -167.83979 
L 246.839057 -166.382212 
L 246.668343 -164.924634 
L 246.514933 -163.467056 
L 246.381311 -162.009478 
L 246.269623 -160.5519 
L 246.181494 -159.094322 
L 246.117972 -157.636745 
L 246.07959 -156.179167 
L 246.066527 -154.721589 
L 246.078797 -153.264011 
L 246.116439 -151.806433 
L 246.179632 -150.348855 
L 246.268701 -148.891277 
L 246.384 -147.4337 
L 246.525651 -145.976122 
L 246.69319 -144.518544 
L 246.885147 -143.060966 
L 247.098629 -141.603388 
L 247.328984 -140.14581 
L 247.569595 -138.688232 
L 247.811873 -137.230655 
L 248.045476 -135.773077 
L 248.258748 -134.315499 
L 248.439366 -132.857921 
L 248.575137 -131.400343 
L 248.65486 -129.942765 
L 248.66918 -128.485187 
L 248.611344 -127.02761 
L 248.47777 -125.570032 
L 248.268379 -124.112454 
L 247.986652 -122.654876 
L 247.639412 -121.197298 
L 247.236356 -119.73972 
L 246.789384 -118.282142 
L 246.311799 -116.824565 
L 245.817452 -115.366987 
L 245.319913 -113.909409 
L 244.831732 -112.451831 
L 244.363847 -110.994253 
L 243.925167 -109.536675 
L 243.522348 -108.079097 
L 243.159748 -106.62152 
L 242.839547 -105.163942 
L 242.56198 -103.706364 
L 242.325672 -102.248786 
z
" id="m94a8e0f030" style="stroke:#3d3d3d;stroke-width:1.5;"/>
    </defs>
    <g clip-path="url(#pecfeae6b86)">
     <use style="fill:#e1812c;stroke:#3d3d3d;stroke-width:1.5;" x="0" xlink:href="#m94a8e0f030" y="279.093821"/>
    </g>
   </g>
   <g id="PolyCollection_3">
    <defs>
     <path d="M 374.675294 -103.346403 
L 373.215331 -103.346403 
L 373.019373 -104.781807 
L 372.788114 -106.217211 
L 372.520347 -107.652614 
L 372.216318 -109.088018 
L 371.878013 -110.523422 
L 371.509362 -111.958826 
L 371.116305 -113.39423 
L 370.706715 -114.829633 
L 370.290123 -116.265037 
L 369.87728 -117.700441 
L 369.479543 -119.135845 
L 369.108142 -120.571248 
L 368.773396 -122.006652 
L 368.483928 -123.442056 
L 368.24599 -124.87746 
L 368.062954 -126.312864 
L 367.935045 -127.748267 
L 367.859351 -129.183671 
L 367.830115 -130.619075 
L 367.839296 -132.054479 
L 367.87733 -133.489882 
L 367.934003 -134.925286 
L 367.999356 -136.36069 
L 368.064495 -137.796094 
L 368.122222 -139.231497 
L 368.16742 -140.666901 
L 368.197151 -142.102305 
L 368.210465 -143.537709 
L 368.207967 -144.973113 
L 368.191211 -146.408516 
L 368.162014 -147.84392 
L 368.121807 -149.279324 
L 368.071111 -150.714728 
L 368.009225 -152.150131 
L 367.934172 -153.585535 
L 367.842913 -155.020939 
L 367.731793 -156.456343 
L 367.597145 -157.891746 
L 367.435961 -159.32715 
L 367.246509 -160.762554 
L 367.028792 -162.197958 
L 366.784754 -163.633362 
L 366.51818 -165.068765 
L 366.234287 -166.504169 
L 365.939028 -167.939573 
L 365.638214 -169.374977 
L 365.336558 -170.81038 
L 365.036788 -172.245784 
L 364.738971 -173.681188 
L 364.440152 -175.116592 
L 364.134391 -176.551996 
L 363.813217 -177.987399 
L 363.466439 -179.422803 
L 363.083218 -180.858207 
L 362.653243 -182.293611 
L 362.167805 -183.729014 
L 361.620611 -185.164418 
L 361.00815 -186.599822 
L 360.329531 -188.035226 
L 359.585751 -189.470629 
L 358.778489 -190.906033 
L 357.908568 -192.341437 
L 356.974343 -193.776841 
L 355.970306 -195.212245 
L 354.88622 -196.647648 
L 353.707035 -198.083052 
L 352.413808 -199.518456 
L 350.985662 -200.95386 
L 349.40273 -202.389263 
L 347.649837 -203.824667 
L 345.72055 -205.260071 
L 343.621096 -206.695475 
L 341.373638 -208.130879 
L 339.01837 -209.566282 
L 336.614007 -211.001686 
L 334.236412 -212.43709 
L 331.975276 -213.872494 
L 329.929028 -215.307897 
L 328.198364 -216.743301 
L 326.878982 -218.178705 
L 326.054211 -219.614109 
L 325.788302 -221.049512 
L 326.121056 -222.484916 
L 327.064355 -223.92032 
L 328.600936 -225.355724 
L 330.685518 -226.791128 
L 333.248121 -228.226531 
L 336.199202 -229.661935 
L 339.436044 -231.097339 
L 342.849751 -232.532743 
L 346.332186 -233.968146 
L 349.782228 -235.40355 
L 353.110895 -236.838954 
L 356.244993 -238.274358 
L 359.129181 -239.709761 
L 361.726488 -241.145165 
L 364.017475 -242.580569 
L 365.998325 -244.015973 
L 367.67821 -245.451377 
L 380.212415 -245.451377 
L 380.212415 -245.451377 
L 381.8923 -244.015973 
L 383.87315 -242.580569 
L 386.164137 -241.145165 
L 388.761444 -239.709761 
L 391.645632 -238.274358 
L 394.77973 -236.838954 
L 398.108397 -235.40355 
L 401.558439 -233.968146 
L 405.040874 -232.532743 
L 408.454581 -231.097339 
L 411.691423 -229.661935 
L 414.642504 -228.226531 
L 417.205107 -226.791128 
L 419.289689 -225.355724 
L 420.82627 -223.92032 
L 421.769569 -222.484916 
L 422.102323 -221.049512 
L 421.836414 -219.614109 
L 421.011643 -218.178705 
L 419.692261 -216.743301 
L 417.961597 -215.307897 
L 415.915349 -213.872494 
L 413.654213 -212.43709 
L 411.276618 -211.001686 
L 408.872255 -209.566282 
L 406.516987 -208.130879 
L 404.269529 -206.695475 
L 402.170075 -205.260071 
L 400.240788 -203.824667 
L 398.487895 -202.389263 
L 396.904963 -200.95386 
L 395.476817 -199.518456 
L 394.18359 -198.083052 
L 393.004405 -196.647648 
L 391.920319 -195.212245 
L 390.916282 -193.776841 
L 389.982057 -192.341437 
L 389.112136 -190.906033 
L 388.304874 -189.470629 
L 387.561094 -188.035226 
L 386.882475 -186.599822 
L 386.270014 -185.164418 
L 385.72282 -183.729014 
L 385.237382 -182.293611 
L 384.807407 -180.858207 
L 384.424186 -179.422803 
L 384.077408 -177.987399 
L 383.756234 -176.551996 
L 383.450473 -175.116592 
L 383.151654 -173.681188 
L 382.853837 -172.245784 
L 382.554067 -170.81038 
L 382.252411 -169.374977 
L 381.951597 -167.939573 
L 381.656338 -166.504169 
L 381.372445 -165.068765 
L 381.105871 -163.633362 
L 380.861833 -162.197958 
L 380.644116 -160.762554 
L 380.454664 -159.32715 
L 380.29348 -157.891746 
L 380.158832 -156.456343 
L 380.047712 -155.020939 
L 379.956453 -153.585535 
L 379.8814 -152.150131 
L 379.819514 -150.714728 
L 379.768818 -149.279324 
L 379.728611 -147.84392 
L 379.699414 -146.408516 
L 379.682658 -144.973113 
L 379.68016 -143.537709 
L 379.693474 -142.102305 
L 379.723205 -140.666901 
L 379.768403 -139.231497 
L 379.82613 -137.796094 
L 379.891269 -136.36069 
L 379.956622 -134.925286 
L 380.013295 -133.489882 
L 380.051329 -132.054479 
L 380.06051 -130.619075 
L 380.031274 -129.183671 
L 379.95558 -127.748267 
L 379.827671 -126.312864 
L 379.644635 -124.87746 
L 379.406697 -123.442056 
L 379.117229 -122.006652 
L 378.782483 -120.571248 
L 378.411082 -119.135845 
L 378.013345 -117.700441 
L 377.600502 -116.265037 
L 377.18391 -114.829633 
L 376.77432 -113.39423 
L 376.381263 -111.958826 
L 376.012612 -110.523422 
L 375.674307 -109.088018 
L 375.370278 -107.652614 
L 375.102511 -106.217211 
L 374.871252 -104.781807 
L 374.675294 -103.346403 
z
" id="mf53895c5f5" style="stroke:#3d3d3d;stroke-width:1.5;"/>
    </defs>
    <g clip-path="url(#pecfeae6b86)">
     <use style="fill:#3a923a;stroke:#3d3d3d;stroke-width:1.5;" x="0" xlink:href="#mf53895c5f5" y="279.093821"/>
    </g>
   </g>
   <g id="PolyCollection_4">
    <defs>
     <path d="M 507.26592 -103.176861 
L 505.684705 -103.176861 
L 505.473671 -104.61569 
L 505.224855 -106.054519 
L 504.937001 -107.493348 
L 504.610415 -108.932177 
L 504.247272 -110.371006 
L 503.851841 -111.809835 
L 503.430573 -113.248663 
L 502.992024 -114.687492 
L 502.546592 -116.126321 
L 502.106056 -117.56515 
L 501.68295 -119.003979 
L 501.289793 -120.442808 
L 500.938252 -121.881637 
L 500.63831 -123.320465 
L 500.397515 -124.759294 
L 500.220404 -126.198123 
L 500.108157 -127.636952 
L 500.058538 -129.075781 
L 500.066124 -130.51461 
L 500.122816 -131.953439 
L 500.218566 -133.392267 
L 500.342257 -134.831096 
L 500.482618 -136.269925 
L 500.629096 -137.708754 
L 500.772573 -139.147583 
L 500.905857 -140.586412 
L 501.023915 -142.025241 
L 501.123826 -143.464069 
L 501.204492 -144.902898 
L 501.266155 -146.341727 
L 501.309818 -147.780556 
L 501.336654 -149.219385 
L 501.347489 -150.658214 
L 501.342445 -152.097043 
L 501.320783 -153.535871 
L 501.280965 -154.9747 
L 501.220911 -156.413529 
L 501.138408 -157.852358 
L 501.031579 -159.291187 
L 500.899336 -160.730016 
L 500.741728 -162.168845 
L 500.560103 -163.607673 
L 500.357042 -165.046502 
L 500.136062 -166.485331 
L 499.901107 -167.92416 
L 499.655888 -169.362989 
L 499.403186 -170.801818 
L 499.144199 -172.240647 
L 498.878052 -173.679475 
L 498.601561 -175.118304 
L 498.309296 -176.557133 
L 497.993948 -177.995962 
L 497.64697 -179.434791 
L 497.259385 -180.87362 
L 496.822641 -182.312449 
L 496.329361 -183.751277 
L 495.77384 -185.190106 
L 495.152172 -186.628935 
L 494.461941 -188.067764 
L 493.701476 -189.506593 
L 492.868754 -190.945422 
L 491.960113 -192.384251 
L 490.969001 -193.823079 
L 489.885023 -195.261908 
L 488.693547 -196.700737 
L 487.376103 -198.139566 
L 485.911708 -199.578395 
L 484.279161 -201.017224 
L 482.460174 -202.456053 
L 480.443105 -203.894881 
L 478.226904 -205.33371 
L 475.824782 -206.772539 
L 473.267117 -208.211368 
L 470.603077 -209.650197 
L 467.900606 -211.089026 
L 465.244509 -212.527855 
L 462.732641 -213.966683 
L 460.470382 -215.405512 
L 458.563832 -216.844341 
L 457.112317 -218.28317 
L 456.200927 -219.721999 
L 455.893821 -221.160828 
L 456.228993 -222.599657 
L 457.21502 -224.038485 
L 458.830128 -225.477314 
L 461.023643 -226.916143 
L 463.719651 -228.354972 
L 466.822463 -229.793801 
L 470.2233 -231.23263 
L 473.807547 -232.671459 
L 477.461884 -234.110287 
L 481.080695 -235.549116 
L 484.57127 -236.987945 
L 487.857494 -238.426774 
L 490.881903 -239.865603 
L 493.606158 -241.304432 
L 496.010128 -242.743261 
L 498.089891 -244.182089 
L 499.854997 -245.620918 
L 513.095628 -245.620918 
L 513.095628 -245.620918 
L 514.860734 -244.182089 
L 516.940497 -242.743261 
L 519.344467 -241.304432 
L 522.068722 -239.865603 
L 525.093131 -238.426774 
L 528.379355 -236.987945 
L 531.86993 -235.549116 
L 535.488741 -234.110287 
L 539.143078 -232.671459 
L 542.727325 -231.23263 
L 546.128162 -229.793801 
L 549.230974 -228.354972 
L 551.926982 -226.916143 
L 554.120497 -225.477314 
L 555.735605 -224.038485 
L 556.721632 -222.599657 
L 557.056804 -221.160828 
L 556.749698 -219.721999 
L 555.838308 -218.28317 
L 554.386793 -216.844341 
L 552.480243 -215.405512 
L 550.217984 -213.966683 
L 547.706116 -212.527855 
L 545.050019 -211.089026 
L 542.347548 -209.650197 
L 539.683508 -208.211368 
L 537.125843 -206.772539 
L 534.723721 -205.33371 
L 532.50752 -203.894881 
L 530.490451 -202.456053 
L 528.671464 -201.017224 
L 527.038917 -199.578395 
L 525.574522 -198.139566 
L 524.257078 -196.700737 
L 523.065602 -195.261908 
L 521.981624 -193.823079 
L 520.990512 -192.384251 
L 520.081871 -190.945422 
L 519.249149 -189.506593 
L 518.488684 -188.067764 
L 517.798453 -186.628935 
L 517.176785 -185.190106 
L 516.621264 -183.751277 
L 516.127984 -182.312449 
L 515.69124 -180.87362 
L 515.303655 -179.434791 
L 514.956677 -177.995962 
L 514.641329 -176.557133 
L 514.349064 -175.118304 
L 514.072573 -173.679475 
L 513.806426 -172.240647 
L 513.547439 -170.801818 
L 513.294737 -169.362989 
L 513.049518 -167.92416 
L 512.814563 -166.485331 
L 512.593583 -165.046502 
L 512.390522 -163.607673 
L 512.208897 -162.168845 
L 512.051289 -160.730016 
L 511.919046 -159.291187 
L 511.812217 -157.852358 
L 511.729714 -156.413529 
L 511.66966 -154.9747 
L 511.629842 -153.535871 
L 511.60818 -152.097043 
L 511.603136 -150.658214 
L 511.613971 -149.219385 
L 511.640807 -147.780556 
L 511.68447 -146.341727 
L 511.746133 -144.902898 
L 511.826799 -143.464069 
L 511.92671 -142.025241 
L 512.044768 -140.586412 
L 512.178052 -139.147583 
L 512.321529 -137.708754 
L 512.468007 -136.269925 
L 512.608368 -134.831096 
L 512.732059 -133.392267 
L 512.827809 -131.953439 
L 512.884501 -130.51461 
L 512.892087 -129.075781 
L 512.842468 -127.636952 
L 512.730221 -126.198123 
L 512.55311 -124.759294 
L 512.312315 -123.320465 
L 512.012373 -121.881637 
L 511.660832 -120.442808 
L 511.267675 -119.003979 
L 510.844569 -117.56515 
L 510.404033 -116.126321 
L 509.958601 -114.687492 
L 509.520052 -113.248663 
L 509.098784 -111.809835 
L 508.703353 -110.371006 
L 508.34021 -108.932177 
L 508.013624 -107.493348 
L 507.72577 -106.054519 
L 507.476954 -104.61569 
L 507.26592 -103.176861 
z
" id="m84eb9350b4" style="stroke:#3d3d3d;stroke-width:1.5;"/>
    </defs>
    <g clip-path="url(#pecfeae6b86)">
     <use style="fill:#c03d3e;stroke:#3d3d3d;stroke-width:1.5;" x="0" xlink:href="#m84eb9350b4" y="279.093821"/>
    </g>
   </g>
   <g id="PolyCollection_5">
    <defs>
     <path d="M 639.006428 -80.458861 
L 639.004197 -80.458861 
L 639.003292 -82.116251 
L 639.001733 -83.77364 
L 638.999107 -85.43103 
L 638.994782 -87.08842 
L 638.987825 -88.745809 
L 638.976893 -90.403199 
L 638.960114 -92.060589 
L 638.934965 -93.717978 
L 638.898163 -95.375368 
L 638.845597 -97.032757 
L 638.772326 -98.690147 
L 638.672699 -100.347537 
L 638.540602 -102.004926 
L 638.369887 -103.662316 
L 638.154963 -105.319706 
L 637.891545 -106.977095 
L 637.577488 -108.634485 
L 637.213612 -110.291874 
L 636.804407 -111.949264 
L 636.35845 -113.606654 
L 635.888427 -115.264043 
L 635.410641 -116.921433 
L 634.944 -118.578823 
L 634.508503 -120.236212 
L 634.123398 -121.893602 
L 633.805208 -123.550991 
L 633.565914 -125.208381 
L 633.411565 -126.865771 
L 633.341553 -128.52316 
L 633.348696 -130.18055 
L 633.420151 -131.837939 
L 633.539042 -133.495329 
L 633.686549 -135.152719 
L 633.84416 -136.810108 
L 633.995702 -138.467498 
L 634.128869 -140.124888 
L 634.235996 -141.782277 
L 634.314009 -143.439667 
L 634.3636 -145.097056 
L 634.387839 -146.754446 
L 634.390512 -148.411836 
L 634.374538 -150.069225 
L 634.340776 -151.726615 
L 634.287472 -153.384005 
L 634.210437 -155.041394 
L 634.103925 -156.698784 
L 633.962003 -158.356173 
L 633.780126 -160.013563 
L 633.556536 -161.670953 
L 633.293158 -163.328342 
L 632.995733 -164.985732 
L 632.673074 -166.643121 
L 632.335515 -168.300511 
L 631.992798 -169.957901 
L 631.651786 -171.61529 
L 631.314458 -173.27268 
L 630.976634 -174.93007 
L 630.627766 -176.587459 
L 630.251929 -178.244849 
L 629.829926 -179.902238 
L 629.342144 -181.559628 
L 628.771621 -183.217018 
L 628.106642 -184.874407 
L 627.342237 -186.531797 
L 626.480063 -188.189187 
L 625.52649 -189.846576 
L 624.489043 -191.503966 
L 623.371783 -193.161355 
L 622.170552 -194.818745 
L 620.869193 -196.476135 
L 619.437907 -198.133524 
L 617.834652 -199.790914 
L 616.010063 -201.448304 
L 613.915723 -203.105693 
L 611.514958 -204.763083 
L 608.794634 -206.420472 
L 605.776038 -208.077862 
L 602.522735 -209.735252 
L 599.143546 -211.392641 
L 595.789389 -213.050031 
L 592.643637 -214.70742 
L 589.906711 -216.36481 
L 587.776655 -218.0222 
L 586.428207 -219.679589 
L 585.993313 -221.336979 
L 586.545861 -222.994369 
L 588.092866 -224.651758 
L 590.57331 -226.309148 
L 593.864679 -227.966537 
L 597.796081 -229.623927 
L 602.165888 -231.281317 
L 606.761339 -232.938706 
L 611.377466 -234.596096 
L 615.833071 -236.253486 
L 619.982182 -237.910875 
L 623.720253 -239.568265 
L 626.985229 -241.225654 
L 629.754256 -242.883044 
L 632.037282 -244.540434 
L 645.973343 -244.540434 
L 645.973343 -244.540434 
L 648.256369 -242.883044 
L 651.025396 -241.225654 
L 654.290372 -239.568265 
L 658.028443 -237.910875 
L 662.177554 -236.253486 
L 666.633159 -234.596096 
L 671.249286 -232.938706 
L 675.844737 -231.281317 
L 680.214544 -229.623927 
L 684.145946 -227.966537 
L 687.437315 -226.309148 
L 689.917759 -224.651758 
L 691.464764 -222.994369 
L 692.017313 -221.336979 
L 691.582418 -219.679589 
L 690.23397 -218.0222 
L 688.103914 -216.36481 
L 685.366988 -214.70742 
L 682.221236 -213.050031 
L 678.867079 -211.392641 
L 675.48789 -209.735252 
L 672.234587 -208.077862 
L 669.215991 -206.420472 
L 666.495667 -204.763083 
L 664.094902 -203.105693 
L 662.000562 -201.448304 
L 660.175973 -199.790914 
L 658.572718 -198.133524 
L 657.141432 -196.476135 
L 655.840073 -194.818745 
L 654.638842 -193.161355 
L 653.521582 -191.503966 
L 652.484135 -189.846576 
L 651.530562 -188.189187 
L 650.668388 -186.531797 
L 649.903983 -184.874407 
L 649.239004 -183.217018 
L 648.668481 -181.559628 
L 648.180699 -179.902238 
L 647.758696 -178.244849 
L 647.382859 -176.587459 
L 647.033991 -174.93007 
L 646.696167 -173.27268 
L 646.358839 -171.61529 
L 646.017827 -169.957901 
L 645.67511 -168.300511 
L 645.337551 -166.643121 
L 645.014892 -164.985732 
L 644.717467 -163.328342 
L 644.454089 -161.670953 
L 644.230499 -160.013563 
L 644.048622 -158.356173 
L 643.9067 -156.698784 
L 643.800188 -155.041394 
L 643.723153 -153.384005 
L 643.669849 -151.726615 
L 643.636087 -150.069225 
L 643.620113 -148.411836 
L 643.622786 -146.754446 
L 643.647025 -145.097056 
L 643.696616 -143.439667 
L 643.774629 -141.782277 
L 643.881756 -140.124888 
L 644.014923 -138.467498 
L 644.166465 -136.810108 
L 644.324076 -135.152719 
L 644.471583 -133.495329 
L 644.590474 -131.837939 
L 644.661929 -130.18055 
L 644.669072 -128.52316 
L 644.59906 -126.865771 
L 644.444711 -125.208381 
L 644.205417 -123.550991 
L 643.887227 -121.893602 
L 643.502122 -120.236212 
L 643.066625 -118.578823 
L 642.599984 -116.921433 
L 642.122198 -115.264043 
L 641.652175 -113.606654 
L 641.206218 -111.949264 
L 640.797013 -110.291874 
L 640.433137 -108.634485 
L 640.11908 -106.977095 
L 639.855662 -105.319706 
L 639.640738 -103.662316 
L 639.470023 -102.004926 
L 639.337926 -100.347537 
L 639.238299 -98.690147 
L 639.165028 -97.032757 
L 639.112462 -95.375368 
L 639.07566 -93.717978 
L 639.050511 -92.060589 
L 639.033732 -90.403199 
L 639.0228 -88.745809 
L 639.015843 -87.08842 
L 639.011518 -85.43103 
L 639.008892 -83.77364 
L 639.007333 -82.116251 
L 639.006428 -80.458861 
z
" id="m4672430396" style="stroke:#3d3d3d;stroke-width:1.5;"/>
    </defs>
    <g clip-path="url(#pecfeae6b86)">
     <use style="fill:#9372b2;stroke:#3d3d3d;stroke-width:1.5;" x="0" xlink:href="#m4672430396" y="279.093821"/>
    </g>
   </g>
   <g id="matplotlib.axis_1">
    <g id="xtick_1">
     <g id="line2d_1">
      <defs>
       <path d="M 0 0 
L 0 3.5 
" id="mf55d8c45b0" style="stroke:#000000;stroke-width:0.8;"/>
      </defs>
      <g>
       <use style="stroke:#000000;stroke-width:0.8;" x="108.885313" xlink:href="#mf55d8c45b0" y="207.031"/>
      </g>
     </g>
     <g id="text_1">
      <!-- Electronics -->
      <defs>
       <path d="M 9.8125 72.90625 
L 55.90625 72.90625 
L 55.90625 64.59375 
L 19.671875 64.59375 
L 19.671875 43.015625 
L 54.390625 43.015625 
L 54.390625 34.71875 
L 19.671875 34.71875 
L 19.671875 8.296875 
L 56.78125 8.296875 
L 56.78125 0 
L 9.8125 0 
z
" id="DejaVuSans-69"/>
       <path d="M 9.421875 75.984375 
L 18.40625 75.984375 
L 18.40625 0 
L 9.421875 0 
z
" id="DejaVuSans-108"/>
       <path d="M 56.203125 29.59375 
L 56.203125 25.203125 
L 14.890625 25.203125 
Q 15.484375 15.921875 20.484375 11.0625 
Q 25.484375 6.203125 34.421875 6.203125 
Q 39.59375 6.203125 44.453125 7.46875 
Q 49.3125 8.734375 54.109375 11.28125 
L 54.109375 2.78125 
Q 49.265625 0.734375 44.1875 -0.34375 
Q 39.109375 -1.421875 33.890625 -1.421875 
Q 20.796875 -1.421875 13.15625 6.1875 
Q 5.515625 13.8125 5.515625 26.8125 
Q 5.515625 40.234375 12.765625 48.109375 
Q 20.015625 56 32.328125 56 
Q 43.359375 56 49.78125 48.890625 
Q 56.203125 41.796875 56.203125 29.59375 
z
M 47.21875 32.234375 
Q 47.125 39.59375 43.09375 43.984375 
Q 39.0625 48.390625 32.421875 48.390625 
Q 24.90625 48.390625 20.390625 44.140625 
Q 15.875 39.890625 15.1875 32.171875 
z
" id="DejaVuSans-101"/>
       <path d="M 48.78125 52.59375 
L 48.78125 44.1875 
Q 44.96875 46.296875 41.140625 47.34375 
Q 37.3125 48.390625 33.40625 48.390625 
Q 24.65625 48.390625 19.8125 42.84375 
Q 14.984375 37.3125 14.984375 27.296875 
Q 14.984375 17.28125 19.8125 11.734375 
Q 24.65625 6.203125 33.40625 6.203125 
Q 37.3125 6.203125 41.140625 7.25 
Q 44.96875 8.296875 48.78125 10.40625 
L 48.78125 2.09375 
Q 45.015625 0.34375 40.984375 -0.53125 
Q 36.96875 -1.421875 32.421875 -1.421875 
Q 20.0625 -1.421875 12.78125 6.34375 
Q 5.515625 14.109375 5.515625 27.296875 
Q 5.515625 40.671875 12.859375 48.328125 
Q 20.21875 56 33.015625 56 
Q 37.15625 56 41.109375 55.140625 
Q 45.0625 54.296875 48.78125 52.59375 
z
" id="DejaVuSans-99"/>
       <path d="M 18.3125 70.21875 
L 18.3125 54.6875 
L 36.8125 54.6875 
L 36.8125 47.703125 
L 18.3125 47.703125 
L 18.3125 18.015625 
Q 18.3125 11.328125 20.140625 9.421875 
Q 21.96875 7.515625 27.59375 7.515625 
L 36.8125 7.515625 
L 36.8125 0 
L 27.59375 0 
Q 17.1875 0 13.234375 3.875 
Q 9.28125 7.765625 9.28125 18.015625 
L 9.28125 47.703125 
L 2.6875 47.703125 
L 2.6875 54.6875 
L 9.28125 54.6875 
L 9.28125 70.21875 
z
" id="DejaVuSans-116"/>
       <path d="M 41.109375 46.296875 
Q 39.59375 47.171875 37.8125 47.578125 
Q 36.03125 48 33.890625 48 
Q 26.265625 48 22.1875 43.046875 
Q 18.109375 38.09375 18.109375 28.8125 
L 18.109375 0 
L 9.078125 0 
L 9.078125 54.6875 
L 18.109375 54.6875 
L 18.109375 46.1875 
Q 20.953125 51.171875 25.484375 53.578125 
Q 30.03125 56 36.53125 56 
Q 37.453125 56 38.578125 55.875 
Q 39.703125 55.765625 41.0625 55.515625 
z
" id="DejaVuSans-114"/>
       <path d="M 30.609375 48.390625 
Q 23.390625 48.390625 19.1875 42.75 
Q 14.984375 37.109375 14.984375 27.296875 
Q 14.984375 17.484375 19.15625 11.84375 
Q 23.34375 6.203125 30.609375 6.203125 
Q 37.796875 6.203125 41.984375 11.859375 
Q 46.1875 17.53125 46.1875 27.296875 
Q 46.1875 37.015625 41.984375 42.703125 
Q 37.796875 48.390625 30.609375 48.390625 
z
M 30.609375 56 
Q 42.328125 56 49.015625 48.375 
Q 55.71875 40.765625 55.71875 27.296875 
Q 55.71875 13.875 49.015625 6.21875 
Q 42.328125 -1.421875 30.609375 -1.421875 
Q 18.84375 -1.421875 12.171875 6.21875 
Q 5.515625 13.875 5.515625 27.296875 
Q 5.515625 40.765625 12.171875 48.375 
Q 18.84375 56 30.609375 56 
z
" id="DejaVuSans-111"/>
       <path d="M 54.890625 33.015625 
L 54.890625 0 
L 45.90625 0 
L 45.90625 32.71875 
Q 45.90625 40.484375 42.875 44.328125 
Q 39.84375 48.1875 33.796875 48.1875 
Q 26.515625 48.1875 22.3125 43.546875 
Q 18.109375 38.921875 18.109375 30.90625 
L 18.109375 0 
L 9.078125 0 
L 9.078125 54.6875 
L 18.109375 54.6875 
L 18.109375 46.1875 
Q 21.34375 51.125 25.703125 53.5625 
Q 30.078125 56 35.796875 56 
Q 45.21875 56 50.046875 50.171875 
Q 54.890625 44.34375 54.890625 33.015625 
z
" id="DejaVuSans-110"/>
       <path d="M 9.421875 54.6875 
L 18.40625 54.6875 
L 18.40625 0 
L 9.421875 0 
z
M 9.421875 75.984375 
L 18.40625 75.984375 
L 18.40625 64.59375 
L 9.421875 64.59375 
z
" id="DejaVuSans-105"/>
       <path d="M 44.28125 53.078125 
L 44.28125 44.578125 
Q 40.484375 46.53125 36.375 47.5 
Q 32.28125 48.484375 27.875 48.484375 
Q 21.1875 48.484375 17.84375 46.4375 
Q 14.5 44.390625 14.5 40.28125 
Q 14.5 37.15625 16.890625 35.375 
Q 19.28125 33.59375 26.515625 31.984375 
L 29.59375 31.296875 
Q 39.15625 29.25 43.1875 25.515625 
Q 47.21875 21.78125 47.21875 15.09375 
Q 47.21875 7.46875 41.1875 3.015625 
Q 35.15625 -1.421875 24.609375 -1.421875 
Q 20.21875 -1.421875 15.453125 -0.5625 
Q 10.6875 0.296875 5.421875 2 
L 5.421875 11.28125 
Q 10.40625 8.6875 15.234375 7.390625 
Q 20.0625 6.109375 24.8125 6.109375 
Q 31.15625 6.109375 34.5625 8.28125 
Q 37.984375 10.453125 37.984375 14.40625 
Q 37.984375 18.0625 35.515625 20.015625 
Q 33.0625 21.96875 24.703125 23.78125 
L 21.578125 24.515625 
Q 13.234375 26.265625 9.515625 29.90625 
Q 5.8125 33.546875 5.8125 39.890625 
Q 5.8125 47.609375 11.28125 51.796875 
Q 16.75 56 26.8125 56 
Q 31.78125 56 36.171875 55.265625 
Q 40.578125 54.546875 44.28125 53.078125 
z
" id="DejaVuSans-115"/>
      </defs>
      <g transform="translate(84.119672 239.88611)rotate(-20)scale(0.1 -0.1)">
       <use xlink:href="#DejaVuSans-69"/>
       <use x="63.183594" xlink:href="#DejaVuSans-108"/>
       <use x="90.966797" xlink:href="#DejaVuSans-101"/>
       <use x="152.490234" xlink:href="#DejaVuSans-99"/>
       <use x="207.470703" xlink:href="#DejaVuSans-116"/>
       <use x="246.679688" xlink:href="#DejaVuSans-114"/>
       <use x="287.761719" xlink:href="#DejaVuSans-111"/>
       <use x="348.943359" xlink:href="#DejaVuSans-110"/>
       <use x="412.322266" xlink:href="#DejaVuSans-105"/>
       <use x="440.105469" xlink:href="#DejaVuSans-99"/>
       <use x="495.085938" xlink:href="#DejaVuSans-115"/>
      </g>
     </g>
    </g>
    <g id="xtick_2">
     <g id="line2d_2">
      <g>
       <use style="stroke:#000000;stroke-width:0.8;" x="241.415313" xlink:href="#mf55d8c45b0" y="207.031"/>
      </g>
     </g>
     <g id="text_2">
      <!-- Automotive -->
      <defs>
       <path d="M 34.1875 63.1875 
L 20.796875 26.90625 
L 47.609375 26.90625 
z
M 28.609375 72.90625 
L 39.796875 72.90625 
L 67.578125 0 
L 57.328125 0 
L 50.6875 18.703125 
L 17.828125 18.703125 
L 11.1875 0 
L 0.78125 0 
z
" id="DejaVuSans-65"/>
       <path d="M 8.5 21.578125 
L 8.5 54.6875 
L 17.484375 54.6875 
L 17.484375 21.921875 
Q 17.484375 14.15625 20.5 10.265625 
Q 23.53125 6.390625 29.59375 6.390625 
Q 36.859375 6.390625 41.078125 11.03125 
Q 45.3125 15.671875 45.3125 23.6875 
L 45.3125 54.6875 
L 54.296875 54.6875 
L 54.296875 0 
L 45.3125 0 
L 45.3125 8.40625 
Q 42.046875 3.421875 37.71875 1 
Q 33.40625 -1.421875 27.6875 -1.421875 
Q 18.265625 -1.421875 13.375 4.4375 
Q 8.5 10.296875 8.5 21.578125 
z
M 31.109375 56 
z
" id="DejaVuSans-117"/>
       <path d="M 52 44.1875 
Q 55.375 50.25 60.0625 53.125 
Q 64.75 56 71.09375 56 
Q 79.640625 56 84.28125 50.015625 
Q 88.921875 44.046875 88.921875 33.015625 
L 88.921875 0 
L 79.890625 0 
L 79.890625 32.71875 
Q 79.890625 40.578125 77.09375 44.375 
Q 74.3125 48.1875 68.609375 48.1875 
Q 61.625 48.1875 57.5625 43.546875 
Q 53.515625 38.921875 53.515625 30.90625 
L 53.515625 0 
L 44.484375 0 
L 44.484375 32.71875 
Q 44.484375 40.625 41.703125 44.40625 
Q 38.921875 48.1875 33.109375 48.1875 
Q 26.21875 48.1875 22.15625 43.53125 
Q 18.109375 38.875 18.109375 30.90625 
L 18.109375 0 
L 9.078125 0 
L 9.078125 54.6875 
L 18.109375 54.6875 
L 18.109375 46.1875 
Q 21.1875 51.21875 25.484375 53.609375 
Q 29.78125 56 35.6875 56 
Q 41.65625 56 45.828125 52.96875 
Q 50 49.953125 52 44.1875 
z
" id="DejaVuSans-109"/>
       <path d="M 2.984375 54.6875 
L 12.5 54.6875 
L 29.59375 8.796875 
L 46.6875 54.6875 
L 56.203125 54.6875 
L 35.6875 0 
L 23.484375 0 
z
" id="DejaVuSans-118"/>
      </defs>
      <g transform="translate(215.179934 240.955992)rotate(-20)scale(0.1 -0.1)">
       <use xlink:href="#DejaVuSans-65"/>
       <use x="68.408203" xlink:href="#DejaVuSans-117"/>
       <use x="131.787109" xlink:href="#DejaVuSans-116"/>
       <use x="170.996094" xlink:href="#DejaVuSans-111"/>
       <use x="232.177734" xlink:href="#DejaVuSans-109"/>
       <use x="329.589844" xlink:href="#DejaVuSans-111"/>
       <use x="390.771484" xlink:href="#DejaVuSans-116"/>
       <use x="429.980469" xlink:href="#DejaVuSans-105"/>
       <use x="457.763672" xlink:href="#DejaVuSans-118"/>
       <use x="516.943359" xlink:href="#DejaVuSans-101"/>
      </g>
     </g>
    </g>
    <g id="xtick_3">
     <g id="line2d_3">
      <g>
       <use style="stroke:#000000;stroke-width:0.8;" x="373.945313" xlink:href="#mf55d8c45b0" y="207.031"/>
      </g>
     </g>
     <g id="text_3">
      <!-- Clothing_Shoes_and_Jewelry -->
      <defs>
       <path d="M 64.40625 67.28125 
L 64.40625 56.890625 
Q 59.421875 61.53125 53.78125 63.8125 
Q 48.140625 66.109375 41.796875 66.109375 
Q 29.296875 66.109375 22.65625 58.46875 
Q 16.015625 50.828125 16.015625 36.375 
Q 16.015625 21.96875 22.65625 14.328125 
Q 29.296875 6.6875 41.796875 6.6875 
Q 48.140625 6.6875 53.78125 8.984375 
Q 59.421875 11.28125 64.40625 15.921875 
L 64.40625 5.609375 
Q 59.234375 2.09375 53.4375 0.328125 
Q 47.65625 -1.421875 41.21875 -1.421875 
Q 24.65625 -1.421875 15.125 8.703125 
Q 5.609375 18.84375 5.609375 36.375 
Q 5.609375 53.953125 15.125 64.078125 
Q 24.65625 74.21875 41.21875 74.21875 
Q 47.75 74.21875 53.53125 72.484375 
Q 59.328125 70.75 64.40625 67.28125 
z
" id="DejaVuSans-67"/>
       <path d="M 54.890625 33.015625 
L 54.890625 0 
L 45.90625 0 
L 45.90625 32.71875 
Q 45.90625 40.484375 42.875 44.328125 
Q 39.84375 48.1875 33.796875 48.1875 
Q 26.515625 48.1875 22.3125 43.546875 
Q 18.109375 38.921875 18.109375 30.90625 
L 18.109375 0 
L 9.078125 0 
L 9.078125 75.984375 
L 18.109375 75.984375 
L 18.109375 46.1875 
Q 21.34375 51.125 25.703125 53.5625 
Q 30.078125 56 35.796875 56 
Q 45.21875 56 50.046875 50.171875 
Q 54.890625 44.34375 54.890625 33.015625 
z
" id="DejaVuSans-104"/>
       <path d="M 45.40625 27.984375 
Q 45.40625 37.75 41.375 43.109375 
Q 37.359375 48.484375 30.078125 48.484375 
Q 22.859375 48.484375 18.828125 43.109375 
Q 14.796875 37.75 14.796875 27.984375 
Q 14.796875 18.265625 18.828125 12.890625 
Q 22.859375 7.515625 30.078125 7.515625 
Q 37.359375 7.515625 41.375 12.890625 
Q 45.40625 18.265625 45.40625 27.984375 
z
M 54.390625 6.78125 
Q 54.390625 -7.171875 48.1875 -13.984375 
Q 42 -20.796875 29.203125 -20.796875 
Q 24.46875 -20.796875 20.265625 -20.09375 
Q 16.0625 -19.390625 12.109375 -17.921875 
L 12.109375 -9.1875 
Q 16.0625 -11.328125 19.921875 -12.34375 
Q 23.78125 -13.375 27.78125 -13.375 
Q 36.625 -13.375 41.015625 -8.765625 
Q 45.40625 -4.15625 45.40625 5.171875 
L 45.40625 9.625 
Q 42.625 4.78125 38.28125 2.390625 
Q 33.9375 0 27.875 0 
Q 17.828125 0 11.671875 7.65625 
Q 5.515625 15.328125 5.515625 27.984375 
Q 5.515625 40.671875 11.671875 48.328125 
Q 17.828125 56 27.875 56 
Q 33.9375 56 38.28125 53.609375 
Q 42.625 51.21875 45.40625 46.390625 
L 45.40625 54.6875 
L 54.390625 54.6875 
z
" id="DejaVuSans-103"/>
       <path d="M 50.984375 -16.609375 
L 50.984375 -23.578125 
L -0.984375 -23.578125 
L -0.984375 -16.609375 
z
" id="DejaVuSans-95"/>
       <path d="M 53.515625 70.515625 
L 53.515625 60.890625 
Q 47.90625 63.578125 42.921875 64.890625 
Q 37.9375 66.21875 33.296875 66.21875 
Q 25.25 66.21875 20.875 63.09375 
Q 16.5 59.96875 16.5 54.203125 
Q 16.5 49.359375 19.40625 46.890625 
Q 22.3125 44.4375 30.421875 42.921875 
L 36.375 41.703125 
Q 47.40625 39.59375 52.65625 34.296875 
Q 57.90625 29 57.90625 20.125 
Q 57.90625 9.515625 50.796875 4.046875 
Q 43.703125 -1.421875 29.984375 -1.421875 
Q 24.8125 -1.421875 18.96875 -0.25 
Q 13.140625 0.921875 6.890625 3.21875 
L 6.890625 13.375 
Q 12.890625 10.015625 18.65625 8.296875 
Q 24.421875 6.59375 29.984375 6.59375 
Q 38.421875 6.59375 43.015625 9.90625 
Q 47.609375 13.234375 47.609375 19.390625 
Q 47.609375 24.75 44.3125 27.78125 
Q 41.015625 30.8125 33.5 32.328125 
L 27.484375 33.5 
Q 16.453125 35.6875 11.515625 40.375 
Q 6.59375 45.0625 6.59375 53.421875 
Q 6.59375 63.09375 13.40625 68.65625 
Q 20.21875 74.21875 32.171875 74.21875 
Q 37.3125 74.21875 42.625 73.28125 
Q 47.953125 72.359375 53.515625 70.515625 
z
" id="DejaVuSans-83"/>
       <path d="M 34.28125 27.484375 
Q 23.390625 27.484375 19.1875 25 
Q 14.984375 22.515625 14.984375 16.5 
Q 14.984375 11.71875 18.140625 8.90625 
Q 21.296875 6.109375 26.703125 6.109375 
Q 34.1875 6.109375 38.703125 11.40625 
Q 43.21875 16.703125 43.21875 25.484375 
L 43.21875 27.484375 
z
M 52.203125 31.203125 
L 52.203125 0 
L 43.21875 0 
L 43.21875 8.296875 
Q 40.140625 3.328125 35.546875 0.953125 
Q 30.953125 -1.421875 24.3125 -1.421875 
Q 15.921875 -1.421875 10.953125 3.296875 
Q 6 8.015625 6 15.921875 
Q 6 25.140625 12.171875 29.828125 
Q 18.359375 34.515625 30.609375 34.515625 
L 43.21875 34.515625 
L 43.21875 35.40625 
Q 43.21875 41.609375 39.140625 45 
Q 35.0625 48.390625 27.6875 48.390625 
Q 23 48.390625 18.546875 47.265625 
Q 14.109375 46.140625 10.015625 43.890625 
L 10.015625 52.203125 
Q 14.9375 54.109375 19.578125 55.046875 
Q 24.21875 56 28.609375 56 
Q 40.484375 56 46.34375 49.84375 
Q 52.203125 43.703125 52.203125 31.203125 
z
" id="DejaVuSans-97"/>
       <path d="M 45.40625 46.390625 
L 45.40625 75.984375 
L 54.390625 75.984375 
L 54.390625 0 
L 45.40625 0 
L 45.40625 8.203125 
Q 42.578125 3.328125 38.25 0.953125 
Q 33.9375 -1.421875 27.875 -1.421875 
Q 17.96875 -1.421875 11.734375 6.484375 
Q 5.515625 14.40625 5.515625 27.296875 
Q 5.515625 40.1875 11.734375 48.09375 
Q 17.96875 56 27.875 56 
Q 33.9375 56 38.25 53.625 
Q 42.578125 51.265625 45.40625 46.390625 
z
M 14.796875 27.296875 
Q 14.796875 17.390625 18.875 11.75 
Q 22.953125 6.109375 30.078125 6.109375 
Q 37.203125 6.109375 41.296875 11.75 
Q 45.40625 17.390625 45.40625 27.296875 
Q 45.40625 37.203125 41.296875 42.84375 
Q 37.203125 48.484375 30.078125 48.484375 
Q 22.953125 48.484375 18.875 42.84375 
Q 14.796875 37.203125 14.796875 27.296875 
z
" id="DejaVuSans-100"/>
       <path d="M 9.8125 72.90625 
L 19.671875 72.90625 
L 19.671875 5.078125 
Q 19.671875 -8.109375 14.671875 -14.0625 
Q 9.671875 -20.015625 -1.421875 -20.015625 
L -5.171875 -20.015625 
L -5.171875 -11.71875 
L -2.09375 -11.71875 
Q 4.4375 -11.71875 7.125 -8.046875 
Q 9.8125 -4.390625 9.8125 5.078125 
z
" id="DejaVuSans-74"/>
       <path d="M 4.203125 54.6875 
L 13.1875 54.6875 
L 24.421875 12.015625 
L 35.59375 54.6875 
L 46.1875 54.6875 
L 57.421875 12.015625 
L 68.609375 54.6875 
L 77.59375 54.6875 
L 63.28125 0 
L 52.6875 0 
L 40.921875 44.828125 
L 29.109375 0 
L 18.5 0 
z
" id="DejaVuSans-119"/>
       <path d="M 32.171875 -5.078125 
Q 28.375 -14.84375 24.75 -17.8125 
Q 21.140625 -20.796875 15.09375 -20.796875 
L 7.90625 -20.796875 
L 7.90625 -13.28125 
L 13.1875 -13.28125 
Q 16.890625 -13.28125 18.9375 -11.515625 
Q 21 -9.765625 23.484375 -3.21875 
L 25.09375 0.875 
L 2.984375 54.6875 
L 12.5 54.6875 
L 29.59375 11.921875 
L 46.6875 54.6875 
L 56.203125 54.6875 
z
" id="DejaVuSans-121"/>
      </defs>
      <g transform="translate(308.205559 269.678202)rotate(-20)scale(0.1 -0.1)">
       <use xlink:href="#DejaVuSans-67"/>
       <use x="69.824219" xlink:href="#DejaVuSans-108"/>
       <use x="97.607422" xlink:href="#DejaVuSans-111"/>
       <use x="158.789062" xlink:href="#DejaVuSans-116"/>
       <use x="197.998047" xlink:href="#DejaVuSans-104"/>
       <use x="261.376953" xlink:href="#DejaVuSans-105"/>
       <use x="289.160156" xlink:href="#DejaVuSans-110"/>
       <use x="352.539062" xlink:href="#DejaVuSans-103"/>
       <use x="416.015625" xlink:href="#DejaVuSans-95"/>
       <use x="466.015625" xlink:href="#DejaVuSans-83"/>
       <use x="529.492188" xlink:href="#DejaVuSans-104"/>
       <use x="592.871094" xlink:href="#DejaVuSans-111"/>
       <use x="654.052734" xlink:href="#DejaVuSans-101"/>
       <use x="715.576172" xlink:href="#DejaVuSans-115"/>
       <use x="767.675781" xlink:href="#DejaVuSans-95"/>
       <use x="817.675781" xlink:href="#DejaVuSans-97"/>
       <use x="878.955078" xlink:href="#DejaVuSans-110"/>
       <use x="942.333984" xlink:href="#DejaVuSans-100"/>
       <use x="1005.810547" xlink:href="#DejaVuSans-95"/>
       <use x="1055.810547" xlink:href="#DejaVuSans-74"/>
       <use x="1085.302734" xlink:href="#DejaVuSans-101"/>
       <use x="1146.826172" xlink:href="#DejaVuSans-119"/>
       <use x="1228.613281" xlink:href="#DejaVuSans-101"/>
       <use x="1290.136719" xlink:href="#DejaVuSans-108"/>
       <use x="1317.919922" xlink:href="#DejaVuSans-114"/>
       <use x="1359.033203" xlink:href="#DejaVuSans-121"/>
      </g>
     </g>
    </g>
    <g id="xtick_4">
     <g id="line2d_4">
      <g>
       <use style="stroke:#000000;stroke-width:0.8;" x="506.475313" xlink:href="#mf55d8c45b0" y="207.031"/>
      </g>
     </g>
     <g id="text_4">
      <!-- Sports_and_Outdoors -->
      <defs>
       <path d="M 18.109375 8.203125 
L 18.109375 -20.796875 
L 9.078125 -20.796875 
L 9.078125 54.6875 
L 18.109375 54.6875 
L 18.109375 46.390625 
Q 20.953125 51.265625 25.265625 53.625 
Q 29.59375 56 35.59375 56 
Q 45.5625 56 51.78125 48.09375 
Q 58.015625 40.1875 58.015625 27.296875 
Q 58.015625 14.40625 51.78125 6.484375 
Q 45.5625 -1.421875 35.59375 -1.421875 
Q 29.59375 -1.421875 25.265625 0.953125 
Q 20.953125 3.328125 18.109375 8.203125 
z
M 48.6875 27.296875 
Q 48.6875 37.203125 44.609375 42.84375 
Q 40.53125 48.484375 33.40625 48.484375 
Q 26.265625 48.484375 22.1875 42.84375 
Q 18.109375 37.203125 18.109375 27.296875 
Q 18.109375 17.390625 22.1875 11.75 
Q 26.265625 6.109375 33.40625 6.109375 
Q 40.53125 6.109375 44.609375 11.75 
Q 48.6875 17.390625 48.6875 27.296875 
z
" id="DejaVuSans-112"/>
       <path d="M 39.40625 66.21875 
Q 28.65625 66.21875 22.328125 58.203125 
Q 16.015625 50.203125 16.015625 36.375 
Q 16.015625 22.609375 22.328125 14.59375 
Q 28.65625 6.59375 39.40625 6.59375 
Q 50.140625 6.59375 56.421875 14.59375 
Q 62.703125 22.609375 62.703125 36.375 
Q 62.703125 50.203125 56.421875 58.203125 
Q 50.140625 66.21875 39.40625 66.21875 
z
M 39.40625 74.21875 
Q 54.734375 74.21875 63.90625 63.9375 
Q 73.09375 53.65625 73.09375 36.375 
Q 73.09375 19.140625 63.90625 8.859375 
Q 54.734375 -1.421875 39.40625 -1.421875 
Q 24.03125 -1.421875 14.8125 8.828125 
Q 5.609375 19.09375 5.609375 36.375 
Q 5.609375 53.65625 14.8125 63.9375 
Q 24.03125 74.21875 39.40625 74.21875 
z
" id="DejaVuSans-79"/>
      </defs>
      <g transform="translate(457.142005 257.735286)rotate(-20)scale(0.1 -0.1)">
       <use xlink:href="#DejaVuSans-83"/>
       <use x="63.476562" xlink:href="#DejaVuSans-112"/>
       <use x="126.953125" xlink:href="#DejaVuSans-111"/>
       <use x="188.134766" xlink:href="#DejaVuSans-114"/>
       <use x="229.248047" xlink:href="#DejaVuSans-116"/>
       <use x="268.457031" xlink:href="#DejaVuSans-115"/>
       <use x="320.556641" xlink:href="#DejaVuSans-95"/>
       <use x="370.556641" xlink:href="#DejaVuSans-97"/>
       <use x="431.835938" xlink:href="#DejaVuSans-110"/>
       <use x="495.214844" xlink:href="#DejaVuSans-100"/>
       <use x="558.691406" xlink:href="#DejaVuSans-95"/>
       <use x="608.691406" xlink:href="#DejaVuSans-79"/>
       <use x="687.402344" xlink:href="#DejaVuSans-117"/>
       <use x="750.78125" xlink:href="#DejaVuSans-116"/>
       <use x="789.990234" xlink:href="#DejaVuSans-100"/>
       <use x="853.466797" xlink:href="#DejaVuSans-111"/>
       <use x="914.648438" xlink:href="#DejaVuSans-111"/>
       <use x="975.830078" xlink:href="#DejaVuSans-114"/>
       <use x="1016.943359" xlink:href="#DejaVuSans-115"/>
      </g>
     </g>
    </g>
    <g id="xtick_5">
     <g id="line2d_5">
      <g>
       <use style="stroke:#000000;stroke-width:0.8;" x="639.005313" xlink:href="#mf55d8c45b0" y="207.031"/>
      </g>
     </g>
     <g id="text_5">
      <!-- All departments -->
      <defs>
       <path id="DejaVuSans-32"/>
      </defs>
      <g transform="translate(602.387064 248.514102)rotate(-20)scale(0.1 -0.1)">
       <use xlink:href="#DejaVuSans-65"/>
       <use x="68.408203" xlink:href="#DejaVuSans-108"/>
       <use x="96.191406" xlink:href="#DejaVuSans-108"/>
       <use x="123.974609" xlink:href="#DejaVuSans-32"/>
       <use x="155.761719" xlink:href="#DejaVuSans-100"/>
       <use x="219.238281" xlink:href="#DejaVuSans-101"/>
       <use x="280.761719" xlink:href="#DejaVuSans-112"/>
       <use x="344.238281" xlink:href="#DejaVuSans-97"/>
       <use x="405.517578" xlink:href="#DejaVuSans-114"/>
       <use x="446.630859" xlink:href="#DejaVuSans-116"/>
       <use x="485.839844" xlink:href="#DejaVuSans-109"/>
       <use x="583.251953" xlink:href="#DejaVuSans-101"/>
       <use x="644.775391" xlink:href="#DejaVuSans-110"/>
       <use x="708.154297" xlink:href="#DejaVuSans-116"/>
       <use x="747.363281" xlink:href="#DejaVuSans-115"/>
      </g>
     </g>
    </g>
   </g>
   <g id="matplotlib.axis_2">
    <g id="ytick_1">
     <g id="line2d_6">
      <defs>
       <path d="M 0 0 
L -3.5 0 
" id="mb83f98a1a7" style="stroke:#000000;stroke-width:0.8;"/>
      </defs>
      <g>
       <use style="stroke:#000000;stroke-width:0.8;" x="42.620313" xlink:href="#mb83f98a1a7" y="199.888871"/>
      </g>
     </g>
     <g id="text_6">
      <!-- 1 -->
      <defs>
       <path d="M 10.59375 35.5 
L 73.1875 35.5 
L 73.1875 27.203125 
L 10.59375 27.203125 
z
" id="DejaVuSans-8722"/>
       <path d="M 12.40625 8.296875 
L 28.515625 8.296875 
L 28.515625 63.921875 
L 10.984375 60.40625 
L 10.984375 69.390625 
L 28.421875 72.90625 
L 38.28125 72.90625 
L 38.28125 8.296875 
L 54.390625 8.296875 
L 54.390625 0 
L 12.40625 0 
z
" id="DejaVuSans-49"/>
      </defs>
      <g transform="translate(20.878125 203.688089)scale(0.1 -0.1)">
       <use xlink:href="#DejaVuSans-8722"/>
       <use x="83.789062" xlink:href="#DejaVuSans-49"/>
      </g>
     </g>
    </g>
    <g id="ytick_2">
     <g id="line2d_7">
      <g>
       <use style="stroke:#000000;stroke-width:0.8;" x="42.620313" xlink:href="#mb83f98a1a7" y="176.090386"/>
      </g>
     </g>
     <g id="text_7">
      <!-- 0 -->
      <defs>
       <path d="M 31.78125 66.40625 
Q 24.171875 66.40625 20.328125 58.90625 
Q 16.5 51.421875 16.5 36.375 
Q 16.5 21.390625 20.328125 13.890625 
Q 24.171875 6.390625 31.78125 6.390625 
Q 39.453125 6.390625 43.28125 13.890625 
Q 47.125 21.390625 47.125 36.375 
Q 47.125 51.421875 43.28125 58.90625 
Q 39.453125 66.40625 31.78125 66.40625 
z
M 31.78125 74.21875 
Q 44.046875 74.21875 50.515625 64.515625 
Q 56.984375 54.828125 56.984375 36.375 
Q 56.984375 17.96875 50.515625 8.265625 
Q 44.046875 -1.421875 31.78125 -1.421875 
Q 19.53125 -1.421875 13.0625 8.265625 
Q 6.59375 17.96875 6.59375 36.375 
Q 6.59375 54.828125 13.0625 64.515625 
Q 19.53125 74.21875 31.78125 74.21875 
z
" id="DejaVuSans-48"/>
      </defs>
      <g transform="translate(29.257813 179.889605)scale(0.1 -0.1)">
       <use xlink:href="#DejaVuSans-48"/>
      </g>
     </g>
    </g>
    <g id="ytick_3">
     <g id="line2d_8">
      <g>
       <use style="stroke:#000000;stroke-width:0.8;" x="42.620313" xlink:href="#mb83f98a1a7" y="152.291901"/>
      </g>
     </g>
     <g id="text_8">
      <!-- 1 -->
      <g transform="translate(29.257813 156.09112)scale(0.1 -0.1)">
       <use xlink:href="#DejaVuSans-49"/>
      </g>
     </g>
    </g>
    <g id="ytick_4">
     <g id="line2d_9">
      <g>
       <use style="stroke:#000000;stroke-width:0.8;" x="42.620313" xlink:href="#mb83f98a1a7" y="128.493416"/>
      </g>
     </g>
     <g id="text_9">
      <!-- 2 -->
      <defs>
       <path d="M 19.1875 8.296875 
L 53.609375 8.296875 
L 53.609375 0 
L 7.328125 0 
L 7.328125 8.296875 
Q 12.9375 14.109375 22.625 23.890625 
Q 32.328125 33.6875 34.8125 36.53125 
Q 39.546875 41.84375 41.421875 45.53125 
Q 43.3125 49.21875 43.3125 52.78125 
Q 43.3125 58.59375 39.234375 62.25 
Q 35.15625 65.921875 28.609375 65.921875 
Q 23.96875 65.921875 18.8125 64.3125 
Q 13.671875 62.703125 7.8125 59.421875 
L 7.8125 69.390625 
Q 13.765625 71.78125 18.9375 73 
Q 24.125 74.21875 28.421875 74.21875 
Q 39.75 74.21875 46.484375 68.546875 
Q 53.21875 62.890625 53.21875 53.421875 
Q 53.21875 48.921875 51.53125 44.890625 
Q 49.859375 40.875 45.40625 35.40625 
Q 44.1875 33.984375 37.640625 27.21875 
Q 31.109375 20.453125 19.1875 8.296875 
z
" id="DejaVuSans-50"/>
      </defs>
      <g transform="translate(29.257813 132.292635)scale(0.1 -0.1)">
       <use xlink:href="#DejaVuSans-50"/>
      </g>
     </g>
    </g>
    <g id="ytick_5">
     <g id="line2d_10">
      <g>
       <use style="stroke:#000000;stroke-width:0.8;" x="42.620313" xlink:href="#mb83f98a1a7" y="104.694931"/>
      </g>
     </g>
     <g id="text_10">
      <!-- 3 -->
      <defs>
       <path d="M 40.578125 39.3125 
Q 47.65625 37.796875 51.625 33 
Q 55.609375 28.21875 55.609375 21.1875 
Q 55.609375 10.40625 48.1875 4.484375 
Q 40.765625 -1.421875 27.09375 -1.421875 
Q 22.515625 -1.421875 17.65625 -0.515625 
Q 12.796875 0.390625 7.625 2.203125 
L 7.625 11.71875 
Q 11.71875 9.328125 16.59375 8.109375 
Q 21.484375 6.890625 26.8125 6.890625 
Q 36.078125 6.890625 40.9375 10.546875 
Q 45.796875 14.203125 45.796875 21.1875 
Q 45.796875 27.640625 41.28125 31.265625 
Q 36.765625 34.90625 28.71875 34.90625 
L 20.21875 34.90625 
L 20.21875 43.015625 
L 29.109375 43.015625 
Q 36.375 43.015625 40.234375 45.921875 
Q 44.09375 48.828125 44.09375 54.296875 
Q 44.09375 59.90625 40.109375 62.90625 
Q 36.140625 65.921875 28.71875 65.921875 
Q 24.65625 65.921875 20.015625 65.03125 
Q 15.375 64.15625 9.8125 62.3125 
L 9.8125 71.09375 
Q 15.4375 72.65625 20.34375 73.4375 
Q 25.25 74.21875 29.59375 74.21875 
Q 40.828125 74.21875 47.359375 69.109375 
Q 53.90625 64.015625 53.90625 55.328125 
Q 53.90625 49.265625 50.4375 45.09375 
Q 46.96875 40.921875 40.578125 39.3125 
z
" id="DejaVuSans-51"/>
      </defs>
      <g transform="translate(29.257813 108.49415)scale(0.1 -0.1)">
       <use xlink:href="#DejaVuSans-51"/>
      </g>
     </g>
    </g>
    <g id="ytick_6">
     <g id="line2d_11">
      <g>
       <use style="stroke:#000000;stroke-width:0.8;" x="42.620313" xlink:href="#mb83f98a1a7" y="80.896446"/>
      </g>
     </g>
     <g id="text_11">
      <!-- 4 -->
      <defs>
       <path d="M 37.796875 64.3125 
L 12.890625 25.390625 
L 37.796875 25.390625 
z
M 35.203125 72.90625 
L 47.609375 72.90625 
L 47.609375 25.390625 
L 58.015625 25.390625 
L 58.015625 17.1875 
L 47.609375 17.1875 
L 47.609375 0 
L 37.796875 0 
L 37.796875 17.1875 
L 4.890625 17.1875 
L 4.890625 26.703125 
z
" id="DejaVuSans-52"/>
      </defs>
      <g transform="translate(29.257813 84.695665)scale(0.1 -0.1)">
       <use xlink:href="#DejaVuSans-52"/>
      </g>
     </g>
    </g>
    <g id="ytick_7">
     <g id="line2d_12">
      <g>
       <use style="stroke:#000000;stroke-width:0.8;" x="42.620313" xlink:href="#mb83f98a1a7" y="57.097961"/>
      </g>
     </g>
     <g id="text_12">
      <!-- 5 -->
      <defs>
       <path d="M 10.796875 72.90625 
L 49.515625 72.90625 
L 49.515625 64.59375 
L 19.828125 64.59375 
L 19.828125 46.734375 
Q 21.96875 47.46875 24.109375 47.828125 
Q 26.265625 48.1875 28.421875 48.1875 
Q 40.625 48.1875 47.75 41.5 
Q 54.890625 34.8125 54.890625 23.390625 
Q 54.890625 11.625 47.5625 5.09375 
Q 40.234375 -1.421875 26.90625 -1.421875 
Q 22.3125 -1.421875 17.546875 -0.640625 
Q 12.796875 0.140625 7.71875 1.703125 
L 7.71875 11.625 
Q 12.109375 9.234375 16.796875 8.0625 
Q 21.484375 6.890625 26.703125 6.890625 
Q 35.15625 6.890625 40.078125 11.328125 
Q 45.015625 15.765625 45.015625 23.390625 
Q 45.015625 31 40.078125 35.4375 
Q 35.15625 39.890625 26.703125 39.890625 
Q 22.75 39.890625 18.8125 39.015625 
Q 14.890625 38.140625 10.796875 36.28125 
z
" id="DejaVuSans-53"/>
      </defs>
      <g transform="translate(29.257813 60.89718)scale(0.1 -0.1)">
       <use xlink:href="#DejaVuSans-53"/>
      </g>
     </g>
    </g>
    <g id="ytick_8">
     <g id="line2d_13">
      <g>
       <use style="stroke:#000000;stroke-width:0.8;" x="42.620313" xlink:href="#mb83f98a1a7" y="33.299477"/>
      </g>
     </g>
     <g id="text_13">
      <!-- 6 -->
      <defs>
       <path d="M 33.015625 40.375 
Q 26.375 40.375 22.484375 35.828125 
Q 18.609375 31.296875 18.609375 23.390625 
Q 18.609375 15.53125 22.484375 10.953125 
Q 26.375 6.390625 33.015625 6.390625 
Q 39.65625 6.390625 43.53125 10.953125 
Q 47.40625 15.53125 47.40625 23.390625 
Q 47.40625 31.296875 43.53125 35.828125 
Q 39.65625 40.375 33.015625 40.375 
z
M 52.59375 71.296875 
L 52.59375 62.3125 
Q 48.875 64.0625 45.09375 64.984375 
Q 41.3125 65.921875 37.59375 65.921875 
Q 27.828125 65.921875 22.671875 59.328125 
Q 17.53125 52.734375 16.796875 39.40625 
Q 19.671875 43.65625 24.015625 45.921875 
Q 28.375 48.1875 33.59375 48.1875 
Q 44.578125 48.1875 50.953125 41.515625 
Q 57.328125 34.859375 57.328125 23.390625 
Q 57.328125 12.15625 50.6875 5.359375 
Q 44.046875 -1.421875 33.015625 -1.421875 
Q 20.359375 -1.421875 13.671875 8.265625 
Q 6.984375 17.96875 6.984375 36.375 
Q 6.984375 53.65625 15.1875 63.9375 
Q 23.390625 74.21875 37.203125 74.21875 
Q 40.921875 74.21875 44.703125 73.484375 
Q 48.484375 72.75 52.59375 71.296875 
z
" id="DejaVuSans-54"/>
      </defs>
      <g transform="translate(29.257813 37.098695)scale(0.1 -0.1)">
       <use xlink:href="#DejaVuSans-54"/>
      </g>
     </g>
    </g>
    <g id="text_14">
     <!-- Rating -->
     <defs>
      <path d="M 44.390625 34.1875 
Q 47.5625 33.109375 50.5625 29.59375 
Q 53.5625 26.078125 56.59375 19.921875 
L 66.609375 0 
L 56 0 
L 46.6875 18.703125 
Q 43.0625 26.03125 39.671875 28.421875 
Q 36.28125 30.8125 30.421875 30.8125 
L 19.671875 30.8125 
L 19.671875 0 
L 9.8125 0 
L 9.8125 72.90625 
L 32.078125 72.90625 
Q 44.578125 72.90625 50.734375 67.671875 
Q 56.890625 62.453125 56.890625 51.90625 
Q 56.890625 45.015625 53.6875 40.46875 
Q 50.484375 35.9375 44.390625 34.1875 
z
M 19.671875 64.796875 
L 19.671875 38.921875 
L 32.078125 38.921875 
Q 39.203125 38.921875 42.84375 42.21875 
Q 46.484375 45.515625 46.484375 51.90625 
Q 46.484375 58.296875 42.84375 61.546875 
Q 39.203125 64.796875 32.078125 64.796875 
z
" id="DejaVuSans-82"/>
     </defs>
     <g transform="translate(14.798438 130.903469)rotate(-90)scale(0.1 -0.1)">
      <use xlink:href="#DejaVuSans-82"/>
      <use x="69.451172" xlink:href="#DejaVuSans-97"/>
      <use x="130.730469" xlink:href="#DejaVuSans-116"/>
      <use x="169.939453" xlink:href="#DejaVuSans-105"/>
      <use x="197.722656" xlink:href="#DejaVuSans-110"/>
      <use x="261.101562" xlink:href="#DejaVuSans-103"/>
     </g>
    </g>
   </g>
   <g id="line2d_14">
    <path clip-path="url(#pecfeae6b86)" d="M 108.885313 104.694931 
L 108.885313 57.097961 
" style="fill:none;stroke:#3d3d3d;stroke-linecap:square;stroke-width:1.5;"/>
   </g>
   <g id="line2d_15">
    <path clip-path="url(#pecfeae6b86)" d="M 108.885313 80.896446 
L 108.885313 57.097961 
" style="fill:none;stroke:#3d3d3d;stroke-linecap:square;stroke-width:4.5;"/>
   </g>
   <g id="line2d_16">
    <path clip-path="url(#pecfeae6b86)" d="M 241.415313 104.694931 
L 241.415313 57.097961 
" style="fill:none;stroke:#3d3d3d;stroke-linecap:square;stroke-width:1.5;"/>
   </g>
   <g id="line2d_17">
    <path clip-path="url(#pecfeae6b86)" d="M 241.415313 80.896446 
L 241.415313 57.097961 
" style="fill:none;stroke:#3d3d3d;stroke-linecap:square;stroke-width:4.5;"/>
   </g>
   <g id="line2d_18">
    <path clip-path="url(#pecfeae6b86)" d="M 373.945313 104.694931 
L 373.945313 57.097961 
" style="fill:none;stroke:#3d3d3d;stroke-linecap:square;stroke-width:1.5;"/>
   </g>
   <g id="line2d_19">
    <path clip-path="url(#pecfeae6b86)" d="M 373.945313 80.896446 
L 373.945313 57.097961 
" style="fill:none;stroke:#3d3d3d;stroke-linecap:square;stroke-width:4.5;"/>
   </g>
   <g id="line2d_20">
    <path clip-path="url(#pecfeae6b86)" d="M 506.475313 104.694931 
L 506.475313 57.097961 
" style="fill:none;stroke:#3d3d3d;stroke-linecap:square;stroke-width:1.5;"/>
   </g>
   <g id="line2d_21">
    <path clip-path="url(#pecfeae6b86)" d="M 506.475313 80.896446 
L 506.475313 57.097961 
" style="fill:none;stroke:#3d3d3d;stroke-linecap:square;stroke-width:4.5;"/>
   </g>
   <g id="line2d_22">
    <path clip-path="url(#pecfeae6b86)" d="M 639.005313 104.694931 
L 639.005313 57.097961 
" style="fill:none;stroke:#3d3d3d;stroke-linecap:square;stroke-width:1.5;"/>
   </g>
   <g id="line2d_23">
    <path clip-path="url(#pecfeae6b86)" d="M 639.005313 80.896446 
L 639.005313 57.097961 
" style="fill:none;stroke:#3d3d3d;stroke-linecap:square;stroke-width:4.5;"/>
   </g>
   <g id="patch_3">
    <path d="M 42.620313 207.031 
L 42.620313 22.318125 
" style="fill:none;stroke:#000000;stroke-linecap:square;stroke-linejoin:miter;stroke-width:0.8;"/>
   </g>
   <g id="patch_4">
    <path d="M 705.270313 207.031 
L 705.270313 22.318125 
" style="fill:none;stroke:#000000;stroke-linecap:square;stroke-linejoin:miter;stroke-width:0.8;"/>
   </g>
   <g id="patch_5">
    <path d="M 42.620313 207.031 
L 705.270313 207.031 
" style="fill:none;stroke:#000000;stroke-linecap:square;stroke-linejoin:miter;stroke-width:0.8;"/>
   </g>
   <g id="patch_6">
    <path d="M 42.620313 22.318125 
L 705.270313 22.318125 
" style="fill:none;stroke:#000000;stroke-linecap:square;stroke-linejoin:miter;stroke-width:0.8;"/>
   </g>
   <g id="PathCollection_1">
    <defs>
     <path d="M 0 1.5 
C 0.397805 1.5 0.77937 1.341951 1.06066 1.06066 
C 1.341951 0.77937 1.5 0.397805 1.5 0 
C 1.5 -0.397805 1.341951 -0.77937 1.06066 -1.06066 
C 0.77937 -1.341951 0.397805 -1.5 0 -1.5 
C -0.397805 -1.5 -0.77937 -1.341951 -1.06066 -1.06066 
C -1.341951 -0.77937 -1.5 -0.397805 -1.5 0 
C -1.5 0.397805 -1.341951 0.77937 -1.06066 1.06066 
C -0.77937 1.341951 -0.397805 1.5 0 1.5 
z
" id="mbb29019b19" style="stroke:#3d3d3d;"/>
    </defs>
    <g clip-path="url(#pecfeae6b86)">
     <use style="fill:#ffffff;stroke:#3d3d3d;" x="108.885313" xlink:href="#mbb29019b19" y="57.097961"/>
    </g>
   </g>
   <g id="PathCollection_2">
    <g clip-path="url(#pecfeae6b86)">
     <use style="fill:#ffffff;stroke:#3d3d3d;" x="241.415313" xlink:href="#mbb29019b19" y="57.097961"/>
    </g>
   </g>
   <g id="PathCollection_3">
    <g clip-path="url(#pecfeae6b86)">
     <use style="fill:#ffffff;stroke:#3d3d3d;" x="373.945313" xlink:href="#mbb29019b19" y="57.097961"/>
    </g>
   </g>
   <g id="PathCollection_4">
    <g clip-path="url(#pecfeae6b86)">
     <use style="fill:#ffffff;stroke:#3d3d3d;" x="506.475313" xlink:href="#mbb29019b19" y="57.097961"/>
    </g>
   </g>
   <g id="PathCollection_5">
    <g clip-path="url(#pecfeae6b86)">
     <use style="fill:#ffffff;stroke:#3d3d3d;" x="639.005313" xlink:href="#mbb29019b19" y="57.097961"/>
    </g>
   </g>
   <g id="text_15">
    <!-- Ratings distribution for selected departments -->
    <defs>
     <path d="M 48.6875 27.296875 
Q 48.6875 37.203125 44.609375 42.84375 
Q 40.53125 48.484375 33.40625 48.484375 
Q 26.265625 48.484375 22.1875 42.84375 
Q 18.109375 37.203125 18.109375 27.296875 
Q 18.109375 17.390625 22.1875 11.75 
Q 26.265625 6.109375 33.40625 6.109375 
Q 40.53125 6.109375 44.609375 11.75 
Q 48.6875 17.390625 48.6875 27.296875 
z
M 18.109375 46.390625 
Q 20.953125 51.265625 25.265625 53.625 
Q 29.59375 56 35.59375 56 
Q 45.5625 56 51.78125 48.09375 
Q 58.015625 40.1875 58.015625 27.296875 
Q 58.015625 14.40625 51.78125 6.484375 
Q 45.5625 -1.421875 35.59375 -1.421875 
Q 29.59375 -1.421875 25.265625 0.953125 
Q 20.953125 3.328125 18.109375 8.203125 
L 18.109375 0 
L 9.078125 0 
L 9.078125 75.984375 
L 18.109375 75.984375 
z
" id="DejaVuSans-98"/>
     <path d="M 37.109375 75.984375 
L 37.109375 68.5 
L 28.515625 68.5 
Q 23.6875 68.5 21.796875 66.546875 
Q 19.921875 64.59375 19.921875 59.515625 
L 19.921875 54.6875 
L 34.71875 54.6875 
L 34.71875 47.703125 
L 19.921875 47.703125 
L 19.921875 0 
L 10.890625 0 
L 10.890625 47.703125 
L 2.296875 47.703125 
L 2.296875 54.6875 
L 10.890625 54.6875 
L 10.890625 58.5 
Q 10.890625 67.625 15.140625 71.796875 
Q 19.390625 75.984375 28.609375 75.984375 
z
" id="DejaVuSans-102"/>
    </defs>
    <g transform="translate(237.325313 16.318125)scale(0.12 -0.12)">
     <use xlink:href="#DejaVuSans-82"/>
     <use x="69.451172" xlink:href="#DejaVuSans-97"/>
     <use x="130.730469" xlink:href="#DejaVuSans-116"/>
     <use x="169.939453" xlink:href="#DejaVuSans-105"/>
     <use x="197.722656" xlink:href="#DejaVuSans-110"/>
     <use x="261.101562" xlink:href="#DejaVuSans-103"/>
     <use x="324.578125" xlink:href="#DejaVuSans-115"/>
     <use x="376.677734" xlink:href="#DejaVuSans-32"/>
     <use x="408.464844" xlink:href="#DejaVuSans-100"/>
     <use x="471.941406" xlink:href="#DejaVuSans-105"/>
     <use x="499.724609" xlink:href="#DejaVuSans-115"/>
     <use x="551.824219" xlink:href="#DejaVuSans-116"/>
     <use x="591.033203" xlink:href="#DejaVuSans-114"/>
     <use x="632.146484" xlink:href="#DejaVuSans-105"/>
     <use x="659.929688" xlink:href="#DejaVuSans-98"/>
     <use x="723.40625" xlink:href="#DejaVuSans-117"/>
     <use x="786.785156" xlink:href="#DejaVuSans-116"/>
     <use x="825.994141" xlink:href="#DejaVuSans-105"/>
     <use x="853.777344" xlink:href="#DejaVuSans-111"/>
     <use x="914.958984" xlink:href="#DejaVuSans-110"/>
     <use x="978.337891" xlink:href="#DejaVuSans-32"/>
     <use x="1010.125" xlink:href="#DejaVuSans-102"/>
     <use x="1045.330078" xlink:href="#DejaVuSans-111"/>
     <use x="1106.511719" xlink:href="#DejaVuSans-114"/>
     <use x="1147.625" xlink:href="#DejaVuSans-32"/>
     <use x="1179.412109" xlink:href="#DejaVuSans-115"/>
     <use x="1231.511719" xlink:href="#DejaVuSans-101"/>
     <use x="1293.035156" xlink:href="#DejaVuSans-108"/>
     <use x="1320.818359" xlink:href="#DejaVuSans-101"/>
     <use x="1382.341797" xlink:href="#DejaVuSans-99"/>
     <use x="1437.322266" xlink:href="#DejaVuSans-116"/>
     <use x="1476.53125" xlink:href="#DejaVuSans-101"/>
     <use x="1538.054688" xlink:href="#DejaVuSans-100"/>
     <use x="1601.53125" xlink:href="#DejaVuSans-32"/>
     <use x="1633.318359" xlink:href="#DejaVuSans-100"/>
     <use x="1696.794922" xlink:href="#DejaVuSans-101"/>
     <use x="1758.318359" xlink:href="#DejaVuSans-112"/>
     <use x="1821.794922" xlink:href="#DejaVuSans-97"/>
     <use x="1883.074219" xlink:href="#DejaVuSans-114"/>
     <use x="1924.1875" xlink:href="#DejaVuSans-116"/>
     <use x="1963.396484" xlink:href="#DejaVuSans-109"/>
     <use x="2060.808594" xlink:href="#DejaVuSans-101"/>
     <use x="2122.332031" xlink:href="#DejaVuSans-110"/>
     <use x="2185.710938" xlink:href="#DejaVuSans-116"/>
     <use x="2224.919922" xlink:href="#DejaVuSans-115"/>
    </g>
   </g>
  </g>
 </g>
 <defs>
  <clipPath id="pecfeae6b86">
   <rect height="184.712875" width="662.65" x="42.620313" y="22.318125"/>
  </clipPath>
 </defs>
</svg>
